HIERARCHY
ROOT root
{
	OFFSET 0.000000 0.000000 0.000000
	CHANNELS 6 Xposition Yposition Zposition Zrotation Yrotation Xrotation
	JOINT lhip
	{
		OFFSET 0.058581 -0.082280 -0.017664
		CHANNELS 3 Zrotation Yrotation Xrotation
		JOINT lknee
		{
			OFFSET 0.043451 -0.386469 0.008037
			CHANNELS 3 Zrotation Yrotation Xrotation
			JOINT lankle
			{
				OFFSET -0.014790 -0.426874 -0.037428
				CHANNELS 3 Zrotation Yrotation Xrotation
				JOINT ltoe
				{
					OFFSET 0.041054 -0.060286 0.122042
					CHANNELS 3 Zrotation Yrotation Xrotation
					End Site
					{
						OFFSET 0.000000 0.000000 0.000000
					}
				}
			}
		}
	}
	JOINT rhip
	{
		OFFSET -0.060310 -0.090513 -0.013543
		CHANNELS 3 Zrotation Yrotation Xrotation
		JOINT rknee
		{
			OFFSET -0.043257 -0.383688 -0.004843
			CHANNELS 3 Zrotation Yrotation Xrotation
			JOINT rankle
			{
				OFFSET 0.019056 -0.420046 -0.034562
				CHANNELS 3 Zrotation Yrotation Xrotation
				JOINT rtoe
				{
					OFFSET -0.034840 -0.062106 0.130323
					CHANNELS 3 Zrotation Yrotation Xrotation
					End Site
					{
						OFFSET 0.000000 0.000000 0.000000
					}
				}
			}
		}
	}
	JOINT lowerback
	{
		OFFSET 0.004439 0.124404 -0.038385
		CHANNELS 3 Zrotation Yrotation Xrotation
		JOINT upperback
		{
			OFFSET 0.004488 0.137956 0.026820
			CHANNELS 3 Zrotation Yrotation Xrotation
			JOINT chest
			{
				OFFSET -0.002265 0.056032 0.002855
				CHANNELS 3 Zrotation Yrotation Xrotation
				JOINT lowerneck
				{
					OFFSET -0.013390 0.211636 -0.033468
					CHANNELS 3 Zrotation Yrotation Xrotation
					JOINT upperneck
					{
						OFFSET 0.010113 0.088937 0.050410
						CHANNELS 3 Zrotation Yrotation Xrotation
						End Site
						{
							OFFSET 0.000000 0.000000 0.000000
						}
					}
				}
				JOINT lclavicle
				{
					OFFSET 0.071702 0.114000 -0.018898
					CHANNELS 3 Zrotation Yrotation Xrotation
					JOINT lshoulder
					{
						OFFSET 0.122921 0.045205 -0.019046
						CHANNELS 3 Zrotation Yrotation Xrotation
						JOINT lelbow
						{
							OFFSET 0.255332 -0.015649 -0.022946
							CHANNELS 3 Zrotation Yrotation Xrotation
							JOINT lwrist
							{
								OFFSET 0.265709 0.012698 -0.007375
								CHANNELS 3 Zrotation Yrotation Xrotation
								End Site
								{
									OFFSET 0.000000 0.000000 0.000000
								}
							}
						}
					}
				}
				JOINT rclavicle
				{
					OFFSET -0.082954 0.112472 -0.023707
					CHANNELS 3 Zrotation Yrotation Xrotation
					JOINT rshoulder
					{
						OFFSET -0.113228 0.046853 -0.008472
						CHANNELS 3 Zrotation Yrotation Xrotation
						JOINT relbow
						{
							OFFSET -0.260127 -0.014369 -0.031269
							CHANNELS 3 Zrotation Yrotation Xrotation
							JOINT rwrist
							{
								OFFSET -0.269108 0.006794 -0.006027
								CHANNELS 3 Zrotation Yrotation Xrotation
								End Site
								{
									OFFSET 0.000000 0.000000 0.000000
								}
							}
						}
					}
				}
			}
		}
	}
}
MOTION
Frames: 8
Frame Time: 0.033333
0.240745 2.079439 0.965414 -7.696518 2.011011 88.306218 9.308513 0.114914 -29.960041 -4.708656 16.926989 56.807181 2.185860 13.230582 -20.826411 0.000000 -0.000000 0.000000 5.353170 -1.950060 -2.866460 5.134655 -1.232684 17.950536 -0.755192 -6.581257 -25.573643 0.000000 -0.000000 0.000000 -1.992680 4.266299 16.168883 2.767418 -3.019071 -5.487874 0.523030 0.120905 2.544630 4.629934 4.923736 -4.438619 -0.255772 -1.885307 17.376125 -24.777022 2.887636 -0.990818 -50.328077 -5.019192 4.825813 13.722133 -25.659533 -6.060726 11.029526 -5.123725 -5.791498 23.862936 2.237691 -1.152343 47.089415 10.293457 12.487114 -4.408211 26.040792 5.810064 -1.243115 4.861569 -7.414200 
0.240034 2.049136 0.962934 -7.934657 1.665560 87.974162 9.302852 -0.648382 -33.832910 -4.592699 17.195018 47.496379 2.899093 14.835775 -20.270729 0.000000 -0.000000 0.000000 4.405612 -3.220385 0.892697 5.357800 0.112825 16.067699 -0.228429 -6.436867 -26.628136 0.000000 -0.000000 0.000000 -1.809567 5.437443 16.966256 2.446702 -3.443888 -6.180587 0.566017 0.390585 2.881657 4.376339 4.903864 -4.177666 -0.264896 -2.555282 17.417959 -24.999475 3.103426 -1.536403 -49.793735 -4.227666 4.877637 13.012339 -25.821926 -5.410641 11.125751 -5.004056 -5.077702 23.728195 2.563632 -1.145997 46.456690 10.956764 12.558475 -3.580010 27.257349 5.700991 -2.254389 4.424430 -6.469810 
0.239280 2.018380 0.958763 -8.510052 1.594949 88.006078 9.453213 -0.691389 -36.050990 -5.394018 15.932265 35.075212 3.292365 14.635536 -18.578880 0.000000 -0.000000 0.000000 3.645073 -4.029547 4.045953 5.520373 1.263188 14.640099 0.133936 -5.828313 -27.258345 0.000000 -0.000000 0.000000 -1.398060 6.310518 17.238947 2.008202 -3.403638 -6.522494 0.568986 0.676934 2.957984 4.160825 5.058361 -4.025544 -0.243283 -3.222391 17.725324 -25.091301 3.312881 -1.854015 -49.737254 -3.585192 5.241830 13.082606 -25.601840 -5.185623 10.815504 -4.917712 -5.325338 23.495521 2.878170 -1.229035 46.140679 11.742516 12.579193 -2.792084 28.150620 5.965505 -2.635425 4.750298 -6.939472 
0.239767 1.969332 0.950243 -9.164015 2.026546 88.447454 9.072082 -0.013204 -37.506779 -5.773939 10.994284 16.168914 2.542845 12.332101 -12.805829 0.000000 -0.000000 0.000000 2.045766 -6.494164 8.453710 6.296987 3.424502 13.038570 0.330785 -4.929096 -26.767405 0.000000 -0.000000 0.000000 -0.622879 7.551457 16.762734 1.538432 -3.307509 -6.078422 0.892918 1.067092 2.433958 3.311386 4.645765 -3.597314 0.499800 -3.916259 17.391342 -25.404368 3.454253 -2.197277 -49.937738 -3.122966 6.186102 10.611312 -25.680986 -7.733584 19.300793 -3.441020 -11.249148 23.727822 3.538470 -1.167250 44.627760 12.729084 12.487349 -1.798497 29.737455 5.936303 -6.736100 5.163652 -5.398641 
0.239687 1.952205 0.946574 -9.506316 2.416589 88.731963 9.101241 0.867965 -38.136193 -5.554701 9.787080 11.958501 1.245095 12.061521 -12.719525 0.000000 -0.000000 0.000000 1.704449 -7.215478 9.674808 6.498554 3.935289 12.737200 0.620642 -4.116437 -26.601804 0.000000 -0.000000 0.000000 -0.224435 7.890659 16.515822 1.450655 -3.193629 -6.089582 0.952058 1.196537 2.278284 3.340042 4.776022 -3.665729 0.417989 -4.305192 17.469224 -25.688958 3.509849 -2.340783 -49.704513 -2.684242 6.238566 10.553198 -25.974896 -7.585600 18.806171 -3.145278 -11.320240 23.854304 3.813663 -1.176007 44.244934 12.997534 12.407959 -1.529913 30.102900 6.078797 -6.636737 5.259931 -5.496446 
0.239490 1.916789 0.939669 -10.391469 2.892938 89.444135 8.928863 2.270808 -39.703074 -4.940696 8.896745 9.050804 1.694112 11.370204 -13.005341 0.000000 -0.000000 0.000000 0.964387 -7.840317 11.429826 6.534966 4.892120 13.228196 1.087029 -2.745736 -26.138652 0.000000 -0.000000 0.000000 0.023581 8.411188 16.010725 1.426899 -2.910405 -6.689589 0.967641 1.380451 2.163642 3.667471 5.187274 -4.042852 -0.169531 -4.602705 18.317298 -26.185479 3.884895 -2.168526 -49.286706 -1.423410 5.513290 12.579854 -24.952963 -5.264777 12.478097 -4.005188 -7.387470 24.417346 4.490053 -0.869061 43.985665 13.611247 12.109899 -2.182534 30.719319 6.308406 -3.981182 5.388781 -5.822527 
0.239471 1.878216 0.933769 -11.389691 3.048160 89.860234 9.259757 1.777182 -39.918026 -5.181904 10.723117 10.580774 2.042999 11.958995 -13.658529 0.000000 -0.000000 0.000000 0.109518 -7.694659 12.966932 6.167554 6.142665 15.016106 1.985269 -1.902041 -25.219884 0.000000 -0.000000 0.000000 -0.514033 9.213561 15.229042 1.648119 -2.512376 -6.658290 1.085325 1.527368 1.928228 4.045835 5.171916 -4.241137 -0.313100 -4.663110 18.674184 -26.396868 4.117161 -2.042314 -49.279829 -0.857215 5.551091 12.849785 -24.270228 -5.410528 12.040229 -3.916184 -7.318652 25.031447 4.500812 -0.921740 44.047852 14.268220 12.375614 -2.354603 31.041496 6.156984 -3.473155 5.187978 -6.380637 
0.241200 1.836312 0.929115 -11.958042 2.703001 90.592544 8.965621 -0.117245 -39.483138 -5.282900 11.516619 13.534376 3.478317 10.004321 -12.411221 0.000000 -0.000000 0.000000 -0.930291 -6.836165 13.998867 5.850908 7.121216 16.997082 3.368634 -1.677129 -22.945361 0.000000 -0.000000 0.000000 -1.788827 9.858794 13.618324 2.076194 -2.230862 -6.429006 1.203726 1.485947 1.703024 4.597356 4.625554 -3.977933 -0.434040 -4.528576 18.618718 -26.519948 4.539735 -1.655275 -49.358817 -0.738159 5.792279 12.788802 -22.871922 -5.219348 12.146629 -3.872435 -6.445765 25.629590 4.334925 -0.869049 44.469342 14.584548 13.195086 -3.342039 31.269495 5.133632 -3.380755 5.059425 -6.350464 
